<svg width="60" height="124" viewBox="0 0 60 124" fill="none" xmlns="http://www.w3.org/2000/svg">
<path d="M3.19313 103.062V108.195H2.62661V103.622H0.566524V108.195H0V103.062H3.19313Z" fill="black"/>
<path d="M4.53209 106.366C4.53209 107.179 4.94411 107.789 5.51063 107.789C6.07715 107.789 6.48917 107.179 6.48917 106.366C6.48917 105.756 6.23166 104.943 5.56213 104.943C4.8411 104.943 4.53209 105.654 4.53209 106.366ZM7.05569 106.315C7.05569 107.687 6.23166 108.297 5.45913 108.297C4.58359 108.297 3.91406 107.585 3.91406 106.416C3.91406 105.197 4.63509 104.485 5.51063 104.485C6.43767 104.434 7.05569 105.197 7.05569 106.315Z" fill="black"/>
<path d="M10.1974 104.485V108.195H9.63084V105.044H8.5493V106.01C8.5493 107.026 8.44629 107.738 8.03427 108.043C7.87977 108.195 7.67376 108.297 7.41625 108.297L7.36475 107.789C7.46775 107.789 7.62226 107.738 7.67376 107.636C7.98277 107.382 7.98277 106.874 7.98277 106.061V104.587H10.1974V104.485Z" fill="black"/>
<path d="M11.691 104.485V105.959H13.1846V104.485H13.7511V108.195H13.1846V106.518H11.691V108.195H11.073V104.485H11.691Z" fill="black"/>
<path d="M15.0387 106.366C15.0387 107.179 15.4507 107.789 16.0172 107.789C16.5837 107.789 16.9958 107.179 16.9958 106.366C16.9958 105.756 16.7383 104.943 16.0687 104.943C15.3477 104.943 15.0387 105.654 15.0387 106.366ZM17.5623 106.315C17.5623 107.687 16.7383 108.297 15.9657 108.297C15.0902 108.297 14.4207 107.585 14.4207 106.416C14.4207 105.197 15.1417 104.485 16.0172 104.485C16.9443 104.434 17.5623 105.197 17.5623 106.315Z" fill="black"/>
<path d="M20.9098 104.485V108.195H20.3433V104.994H18.8497V108.195H18.2832V104.485H20.9098Z" fill="black"/>
<path d="M22.4549 106.671C22.4549 106.772 22.4549 106.874 22.5064 106.925C22.6094 107.382 22.97 107.687 23.382 107.687C24 107.687 24.3605 107.128 24.3605 106.264C24.3605 105.553 24 104.892 23.4335 104.892C23.0215 104.892 22.6609 105.197 22.5579 105.705C22.5579 105.807 22.5064 105.908 22.5064 105.959V106.671H22.4549ZM21.8369 105.705C21.8369 105.248 21.8369 104.841 21.7854 104.485H22.3004L22.3519 105.095C22.5579 104.638 22.97 104.384 23.485 104.384C24.2575 104.384 24.824 105.146 24.824 106.264C24.824 107.585 24.103 108.246 23.382 108.246C22.97 108.246 22.6094 108.043 22.4034 107.687V109.669H21.8369V105.705Z" fill="black"/>
<path d="M27.2962 106.315C26.6782 106.315 25.9571 106.417 25.9571 107.128C25.9571 107.585 26.2146 107.789 26.4722 107.789C26.8842 107.789 27.1417 107.484 27.2447 107.179C27.2447 107.128 27.2962 107.026 27.2962 106.976V106.315ZM27.8112 107.28C27.8112 107.585 27.8112 107.89 27.8627 108.144H27.3477L27.2962 107.738C27.1417 108.043 26.7812 108.297 26.3177 108.297C25.6481 108.297 25.3391 107.789 25.3391 107.23C25.3391 106.315 26.0086 105.858 27.2447 105.858V105.807C27.2447 105.502 27.1932 104.943 26.5237 104.943C26.2146 104.943 25.9056 105.044 25.6996 105.197L25.5451 104.739C25.8026 104.536 26.2146 104.435 26.5752 104.435C27.5537 104.435 27.7597 105.197 27.7597 105.959V107.28H27.8112Z" fill="black"/>
<path d="M29.3047 106.061H29.7167C30.1287 106.061 30.5922 105.908 30.5922 105.451C30.5922 105.095 30.3347 104.892 29.7167 104.892C29.5107 104.892 29.4077 104.892 29.2532 104.943V106.061H29.3047ZM29.3047 107.738C29.4592 107.738 29.5622 107.738 29.7682 107.738C30.1802 107.738 30.7467 107.636 30.7467 107.077C30.7467 106.569 30.2832 106.417 29.7167 106.417H29.3047V107.738ZM28.7382 104.536C28.9442 104.485 29.4077 104.435 29.7682 104.435C30.2832 104.435 31.2103 104.536 31.2103 105.349C31.2103 105.807 30.9013 106.112 30.5407 106.162C31.0043 106.264 31.3648 106.518 31.3648 107.077C31.3648 108.043 30.3347 108.144 29.6652 108.144C29.3047 108.144 28.9442 108.094 28.7897 108.094V104.536H28.7382Z" fill="black"/>
<path d="M32.6008 104.485V105.959H34.0944V104.485H34.6609V108.195H34.0944V106.518H32.6008V108.195H32.0343V104.485H32.6008Z" fill="black"/>
<path d="M39.0387 104.485V108.195H38.4721V104.485H39.0387ZM36.206 107.687C36.309 107.687 36.4635 107.738 36.6181 107.738C37.0816 107.738 37.5451 107.535 37.5451 106.976C37.5451 106.366 37.0816 106.213 36.6696 106.213C36.5151 106.213 36.3605 106.213 36.2575 106.264V107.687H36.206ZM36.206 104.485V105.756C36.309 105.756 36.5151 105.705 36.7211 105.705C37.3906 105.705 38.1116 106.01 38.1116 106.925C38.1116 107.331 37.9571 107.585 37.7511 107.789C37.3906 108.144 36.8756 108.195 36.4636 108.195C36.1545 108.195 35.8455 108.195 35.588 108.144V104.485H36.206Z" fill="black"/>
<path d="M42.0257 105.959C42.0257 105.553 41.8712 104.892 41.2017 104.892C40.6352 104.892 40.3777 105.502 40.3262 105.959H42.0257ZM40.3262 106.467C40.3262 107.382 40.8412 107.738 41.4077 107.738C41.8197 107.738 42.0772 107.636 42.2832 107.535L42.3863 107.992C42.1802 108.094 41.8197 108.246 41.3047 108.246C40.3262 108.246 39.7596 107.484 39.7596 106.366C39.7596 105.248 40.3262 104.384 41.2532 104.384C42.2832 104.384 42.5923 105.451 42.5923 106.112C42.5923 106.264 42.5923 106.366 42.5923 106.417H40.3262V106.467Z" fill="black"/>
<path d="M46.8669 104.485V108.195H46.3004V105.044H45.2189V106.01C45.2189 107.026 45.1158 107.738 44.7038 108.043C44.5493 108.195 44.3433 108.297 44.0858 108.297L44.0343 107.789C44.1373 107.789 44.2918 107.738 44.3433 107.636C44.6523 107.382 44.6523 106.874 44.6523 106.061V104.587H46.8669V104.485Z" fill="black"/>
<path d="M51.1416 106.315C51.1416 105.654 50.8841 104.892 50.3175 104.892C49.751 104.892 49.442 105.603 49.442 106.315C49.442 107.026 49.6995 107.738 50.266 107.738C50.8841 107.789 51.1416 107.026 51.1416 106.315ZM48.3605 104.485V106.061H48.927C49.03 105.095 49.5965 104.435 50.3175 104.435C51.1416 104.435 51.7081 105.197 51.7081 106.315C51.7081 107.535 51.0901 108.297 50.266 108.297C49.4935 108.297 48.927 107.636 48.8755 106.569H48.3605V108.195H47.7939V104.485H48.3605Z" fill="black"/>
<path d="M53.3048 105.603C53.3048 106.112 53.2532 106.569 53.1502 106.976C53.0987 107.23 52.9957 107.433 52.8927 107.687H54.3348V104.994H53.3048V105.603ZM54.9013 104.485V107.687H55.2103L55.1588 109.364H54.6953L54.6438 108.195H52.5322L52.4807 109.364H52.0172L51.9657 107.687H52.2232C52.3777 107.433 52.4807 107.179 52.5322 106.925C52.6352 106.467 52.7382 105.959 52.7382 105.451V104.485H54.9013Z" fill="black"/>
<path d="M56.4464 104.485V106.061C56.4464 106.62 56.4464 107.026 56.3949 107.535C56.6009 107.077 56.7039 106.823 56.9099 106.416L57.8885 104.485H58.558V108.195H57.9915V106.62C57.9915 106.01 57.9915 105.705 58.043 105.095C57.837 105.553 57.6825 105.857 57.528 106.264C57.2189 106.823 56.8584 107.535 56.5494 108.195H55.8799V104.485H56.4464Z" fill="black"/>
<path d="M59.5879 108.246C59.3819 108.246 59.2274 108.043 59.2274 107.788C59.2274 107.484 59.3819 107.28 59.6394 107.28C59.8454 107.28 60 107.484 60 107.738C60 108.043 59.8454 108.246 59.5879 108.246Z" fill="black"/>
<path d="M2.57506 112.21L3.45059 114.395C3.5536 114.7 3.6566 115.005 3.75961 115.31C3.86261 115.056 3.91411 114.751 4.01712 114.395L4.73815 112.21H5.35617L4.42913 114.853C4.17162 115.564 3.91411 116.326 3.6051 116.784C3.34759 117.19 2.98707 117.394 2.62656 117.394C2.47205 117.394 2.36905 117.394 2.31755 117.343L2.36905 116.784C2.42055 116.784 2.47205 116.784 2.57506 116.784C3.03858 116.784 3.29609 116.276 3.45059 115.92C3.5021 115.818 3.5021 115.717 3.45059 115.615L1.95703 112.159H2.57506V112.21Z" fill="black"/>
<path d="M8.08586 117.19C7.93135 117.292 7.62234 117.394 7.15882 117.394C6.18028 117.394 5.56226 116.631 5.56226 115.513C5.56226 114.395 6.23178 113.531 7.26183 113.531C7.62234 113.531 7.93135 113.633 8.08586 113.735L7.93135 114.243C7.77685 114.141 7.57084 114.09 7.26183 114.09C6.5408 114.09 6.12878 114.7 6.12878 115.462C6.12878 116.326 6.5923 116.835 7.21032 116.835C7.51934 116.835 7.77685 116.733 7.93135 116.682L8.08586 117.19Z" fill="black"/>
<path d="M10.9184 113.633V114.141H9.88833V117.343H9.3218V114.141H8.34326V113.633H10.9184Z" fill="black"/>
<path d="M11.7941 115.513C11.7941 116.326 12.2061 116.936 12.7726 116.936C13.3391 116.936 13.7511 116.326 13.7511 115.513C13.7511 114.903 13.4936 114.09 12.7726 114.09C12.1031 114.09 11.7941 114.802 11.7941 115.513ZM14.3177 115.462C14.3177 116.834 13.4936 117.444 12.7211 117.444C11.8456 117.444 11.176 116.733 11.176 115.564C11.176 114.344 11.8971 113.633 12.7726 113.633C13.6996 113.582 14.3177 114.344 14.3177 115.462Z" fill="black"/>
<path d="M15.9656 112.159C15.9656 112.464 16.1201 112.718 16.3776 112.718C16.6351 112.718 16.7896 112.464 16.8412 112.159H17.2532C17.2017 112.769 16.8927 113.125 16.3776 113.125C15.8111 113.125 15.5536 112.718 15.5536 112.159H15.9656ZM15.6051 113.633V115.208C15.6051 115.767 15.6051 116.174 15.5536 116.682C15.7596 116.225 15.8626 115.971 16.0686 115.564L17.0472 113.633H17.7167V117.343H17.1502V115.767C17.1502 115.158 17.1502 114.853 17.2017 114.243C16.9957 114.7 16.8412 115.005 16.6866 115.412C16.3776 115.971 16.0171 116.682 15.7081 117.343H15.0386V113.633H15.6051Z" fill="black"/>
<path d="M19.2103 113.633V114.853C19.2103 115.31 19.3648 115.615 19.8798 115.615C20.1374 115.615 20.3949 115.513 20.5494 115.361V113.582H21.1159V117.292H20.5494V115.869C20.3434 116.021 19.9829 116.123 19.6738 116.123C19.0558 116.123 18.6438 115.767 18.6438 114.903V113.582H19.2103V113.633Z" fill="black"/>
<path d="M22.6095 113.633V115.208C22.6095 115.767 22.6095 116.174 22.558 116.682C22.764 116.225 22.867 115.971 23.073 115.564L24.0516 113.633H24.7211V117.343H24.2061V115.767C24.2061 115.157 24.2061 114.852 24.2576 114.243C24.0516 114.7 23.8971 115.005 23.7425 115.412C23.4335 115.971 23.073 116.682 22.764 117.343H22.0945V113.633H22.6095Z" fill="black"/>
<path d="M26.2661 115.208H26.6781C27.0901 115.208 27.5537 115.056 27.5537 114.598C27.5537 114.243 27.2962 114.039 26.6781 114.039C26.4721 114.039 26.3691 114.039 26.2146 114.09V115.208H26.2661ZM26.2661 116.885C26.4206 116.885 26.5236 116.885 26.7296 116.885C27.1416 116.885 27.7082 116.784 27.7082 116.225C27.7082 115.716 27.2446 115.564 26.6781 115.564H26.2661V116.885ZM25.6996 113.684C25.9056 113.633 26.3691 113.582 26.7296 113.582C27.2447 113.582 28.1717 113.684 28.1717 114.497C28.1717 114.954 27.8627 115.259 27.5022 115.31C27.9657 115.412 28.3262 115.666 28.3262 116.225C28.3262 117.19 27.2962 117.292 26.6266 117.292C26.2661 117.292 25.9056 117.241 25.7511 117.241V113.684H25.6996Z" fill="black"/>
<path d="M32.4464 113.633V117.343H31.8798V113.633H32.4464ZM29.5622 116.834C29.6652 116.834 29.8197 116.885 29.9743 116.885C30.4378 116.885 30.9013 116.682 30.9013 116.123C30.9013 115.513 30.4378 115.361 30.0258 115.361C29.8713 115.361 29.7167 115.361 29.6137 115.412V116.834H29.5622ZM29.5622 113.633V114.903C29.6652 114.903 29.8713 114.852 30.0773 114.852C30.7468 114.852 31.4678 115.157 31.4678 116.072C31.4678 116.479 31.3133 116.733 31.1073 116.936C30.7468 117.292 30.2318 117.343 29.8197 117.343C29.5107 117.343 29.2017 117.343 28.9442 117.292V113.633H29.5622Z" fill="black"/>
<path d="M35.3819 115.107C35.3819 114.7 35.2274 114.039 34.5579 114.039C33.9914 114.039 33.7339 114.649 33.6824 115.107H35.3819ZM33.6824 115.615C33.6824 116.53 34.1974 116.885 34.7639 116.885C35.1759 116.885 35.4334 116.784 35.6394 116.682L35.7425 117.139C35.5364 117.241 35.1759 117.394 34.6609 117.394C33.6824 117.394 33.1158 116.631 33.1158 115.513C33.1158 114.395 33.6824 113.531 34.6094 113.531C35.6394 113.531 35.9485 114.598 35.9485 115.259C35.9485 115.412 35.9485 115.513 35.9485 115.564H33.6824V115.615Z" fill="black"/>
<path d="M40.1202 117.19C39.9657 117.292 39.6566 117.394 39.1931 117.394C38.2146 117.394 37.5966 116.631 37.5966 115.513C37.5966 114.395 38.2661 113.531 39.2961 113.531C39.6566 113.531 39.9657 113.633 40.1202 113.735L39.9657 114.243C39.8111 114.141 39.6051 114.09 39.2961 114.09C38.5751 114.09 38.1631 114.7 38.1631 115.462C38.1631 116.326 38.6266 116.835 39.2446 116.835C39.5536 116.835 39.8111 116.733 39.9657 116.682L40.1202 117.19Z" fill="black"/>
<path d="M42.9528 113.633V114.141H41.9743V117.343H41.3562V114.141H40.3777V113.633H42.9528Z" fill="black"/>
<path d="M44.0858 115.818C44.0858 115.92 44.0858 116.021 44.1373 116.072C44.2403 116.53 44.6008 116.835 45.0128 116.835C45.6308 116.835 45.9914 116.276 45.9914 115.412C45.9914 114.7 45.6308 114.039 45.0643 114.039C44.6523 114.039 44.2918 114.344 44.1888 114.853C44.1888 114.954 44.1373 115.056 44.1373 115.107V115.818H44.0858ZM43.4678 114.853C43.4678 114.395 43.4678 113.989 43.4163 113.633H43.9313L43.9828 114.243C44.1888 113.785 44.6008 113.531 45.1158 113.531C45.8884 113.531 46.4549 114.294 46.4549 115.412C46.4549 116.733 45.7339 117.394 45.0128 117.394C44.6008 117.394 44.2403 117.19 44.0343 116.835V118.817H43.4678V114.853Z" fill="black"/>
<path d="M48.9271 115.462C48.309 115.462 47.588 115.564 47.588 116.275C47.588 116.733 47.8455 116.936 48.103 116.936C48.515 116.936 48.7726 116.631 48.8756 116.326C48.8756 116.275 48.9271 116.174 48.9271 116.123V115.462ZM49.4421 116.428C49.4421 116.733 49.4421 117.038 49.4936 117.292H48.9786L48.9271 116.885C48.7725 117.19 48.412 117.444 47.9485 117.444C47.279 117.444 46.97 116.936 46.97 116.377C46.97 115.462 47.6395 115.005 48.8756 115.005V114.954C48.8756 114.649 48.8241 114.09 48.1545 114.09C47.8455 114.09 47.5365 114.192 47.3305 114.344L47.176 113.887C47.4335 113.684 47.8455 113.582 48.206 113.582C49.1846 113.582 49.3906 114.344 49.3906 115.107V116.428H49.4421Z" fill="black"/>
<path d="M50.9357 113.633V115.107H52.4807V113.633H53.0473V117.343H52.4807V115.666H50.9357V117.343H50.3691V113.633H50.9357Z" fill="black"/>
<path d="M57.4249 113.633V117.343H56.8584V113.633H57.4249ZM54.5408 116.834C54.6438 116.834 54.7983 116.885 54.9528 116.885C55.4163 116.885 55.8798 116.682 55.8798 116.123C55.8798 115.513 55.4163 115.361 55.0043 115.361C54.8498 115.361 54.6953 115.361 54.5923 115.412V116.834H54.5408ZM54.5408 113.633V114.903C54.6438 114.903 54.8498 114.852 55.0558 114.852C55.7253 114.852 56.4463 115.157 56.4463 116.072C56.4463 116.479 56.2918 116.733 56.0858 116.936C55.7253 117.292 55.2103 117.343 54.7983 117.343C54.4893 117.343 54.1802 117.343 53.9227 117.292V113.633H54.5408Z" fill="black"/>
<path d="M58.352 117.393C58.146 117.393 57.9915 117.19 57.9915 116.936C57.9915 116.631 58.146 116.428 58.4035 116.428C58.6095 116.428 58.764 116.631 58.764 116.885C58.764 117.19 58.6095 117.393 58.352 117.393Z" fill="black"/>
<path d="M29.1503 68.6572H6.90137V46.7031H29.1503V68.6572Z" fill="#006BB6"/>
<path d="M12.5667 50.3115V58.9509C12.5667 63.5246 14.8842 65.2017 17.9229 65.2017C21.116 65.2017 23.5366 63.3722 23.5366 58.8492V50.3115H21.5795V59.0017C21.5795 62.2541 20.1375 63.6771 17.9744 63.6771C15.9658 63.6771 14.5237 62.305 14.5237 59.0017V50.3115H12.5667Z" fill="white"/>
<path d="M52.7897 68.6572H30.5408V46.7031H52.7897V68.6572Z" fill="#006BB6"/>
<path d="M37.9056 64.9984V58.7476C37.9056 56.3082 37.9056 54.5296 37.7511 52.7H37.8026C38.5236 54.2755 39.5022 55.9525 40.5837 57.5787L45.3219 64.9984H47.279V50.3623H45.4764V56.5115C45.4764 58.7984 45.5279 60.5771 45.6824 62.5083H45.6309C44.9614 60.9837 44.0859 59.4591 43.0043 57.7312L38.2661 50.3115H36.1545V64.9984H37.9056Z" fill="white"/>
<path d="M52.7897 91.9834H30.5408V70.0293H52.7897V91.9834Z" fill="#006BB6"/>
<path d="M45.4249 74.705C44.5493 73.9427 43.1588 73.4854 41.2532 73.4854C39.7081 73.4854 38.4721 73.6378 37.5966 73.7903V88.2739H39.5021V82.3788C39.9657 82.4804 40.4807 82.5312 41.0472 82.5312C42.9013 82.5312 44.5493 81.9722 45.5794 80.905C46.3519 80.1427 46.7639 79.0755 46.7639 77.7542C46.7639 76.4837 46.2489 75.4165 45.4249 74.705Z" fill="white"/>
<path d="M41.0988 81.108C40.4807 81.108 39.9142 81.0572 39.5022 80.9556V75.2638C39.8112 75.213 40.4807 75.1113 41.3048 75.1113C43.4164 75.1113 44.8069 76.0261 44.8069 78.008C44.8069 79.99 43.4164 81.108 41.0988 81.108Z" fill="#006BB6"/>
<path d="M29.1503 91.9834H6.90137V70.0293H29.1503V91.9834Z" fill="#006BB6"/>
<path d="M22.5065 75.3149C21.219 74.0952 19.2619 73.4854 16.4808 73.4854C14.9357 73.4854 13.5966 73.6378 12.3606 73.7903V88.223C13.3391 88.3755 14.4722 88.3755 15.8627 88.3755C18.7469 88.3755 21.0645 87.664 22.455 86.2919C23.7941 84.9198 24.5666 82.9886 24.5666 80.6001C24.6181 78.2116 23.8971 76.4837 22.5065 75.3149Z" fill="white"/>
<path d="M16.2747 86.8508C15.5022 86.8508 14.8326 86.8508 14.3176 86.7491V75.1623C14.8326 75.0606 15.5537 74.959 16.5837 74.959C20.6524 74.959 22.6095 77.0934 22.6095 80.6C22.6095 84.6147 20.3949 86.9016 16.2747 86.8508Z" fill="#006BB6"/>
<path d="M6.90137 45.3311H52.7898V0H6.90137V45.3311Z" fill="#006BB6"/>
<path d="M46.3004 23.5805C45.6824 24.4953 44.8584 25.3084 44.2918 26.2231C44.3433 25.5117 44.4463 24.5969 44.1373 23.9362C43.6223 22.4625 43.2103 20.9379 43.0558 19.3117V18.7018C43.4163 20.3789 45.0644 21.4969 44.9614 23.3772C45.0129 23.8346 44.8584 24.1903 44.7554 24.5969L44.8069 24.6477L44.8584 24.5461C45.1159 23.6313 45.2189 22.6658 45.5794 21.8018C46.1459 20.5822 46.8154 19.3625 46.5064 17.8379C47.4335 19.6166 47.176 21.9543 46.3004 23.5805Z" fill="white"/>
<path d="M45.2704 14.1788C46.3519 15.6525 46.6094 17.9394 45.7854 19.6165C45.4764 20.3279 45.2704 21.0902 45.1674 21.8525C45.1159 21.7001 45.1159 21.5476 45.0644 21.3952C44.6524 19.7689 43.0558 18.6001 42.4378 17.0755C42.2318 16.5673 42.0772 16.0591 41.9742 15.5001C42.6438 16.7706 44.3433 17.3804 44.8069 18.7525C45.0129 19.1083 44.9614 19.5148 45.1159 19.9214C45.1674 19.9214 45.1674 19.9214 45.1674 19.8706C44.9614 18.4476 45.0129 16.9738 45.2189 15.5509C45.2189 14.7886 45.1159 14.0771 44.7039 13.4673C44.9614 13.6706 45.0644 13.9755 45.2704 14.1788Z" fill="white"/>
<path d="M44.4979 13.9244C44.8069 15.1949 44.3949 16.4145 44.6524 17.685C43.9314 16.3129 42.4893 15.703 41.4593 14.585C40.8412 13.9244 40.5837 13.1621 40.4807 12.2981C41.0472 13.6703 42.6438 14.026 43.5708 15.1949C43.8799 15.4489 43.9829 15.8555 44.1889 16.1604L44.2404 16.1096C43.7253 14.9916 43.5193 13.7719 43.2103 12.603C43.0043 12.0949 42.6438 11.5867 42.1803 11.2817C43.2103 11.5867 44.2404 12.8063 44.4979 13.9244Z" fill="white"/>
<path d="M41.3047 11.0278C42.1802 11.8409 42.5923 12.8573 42.8498 13.9245L43.0043 14.2802C41.7167 13.3655 40.5322 12.095 39.7081 10.8245L38.6781 9.80811C39.6051 10.113 40.5837 10.3163 41.3047 11.0278Z" fill="white"/>
<path d="M24.3089 10.0113C26.0085 9.19814 27.8626 8.74076 29.8712 8.68994C34.5064 8.68994 38.884 11.3834 40.8926 15.6014C42.1802 18.0408 42.5407 21.344 41.7167 24.0883C40.8926 27.3408 38.1115 30.5932 34.9184 31.9145C31.3132 33.6424 26.163 33.2358 22.9699 30.949C18.4892 27.9506 16.6866 22.7162 18.0257 17.5834C18.7982 14.5342 21.2703 11.4342 24.3089 10.0113Z" fill="white"/>
<path d="M20.7554 9.90967C19.8799 10.672 19.2103 11.6884 18.5408 12.6031C17.9228 13.3146 17.2017 13.8228 16.4807 14.4326C16.8412 13.6703 16.8412 12.8064 17.4078 12.0949C18.1803 10.8244 19.5193 10.367 20.7554 9.90967Z" fill="white"/>
<path d="M15.8627 12.6033C16.2748 12.0443 16.8413 11.6886 17.4593 11.5361C16.2748 12.3492 16.3263 13.823 15.9657 15.0427C15.8627 15.5001 15.6052 15.9066 15.5022 16.364H15.5537C15.7597 15.8558 16.1203 15.3476 16.5323 14.8902C17.4078 14.1279 18.6954 13.6197 19.1074 12.4509C19.1074 14.0771 17.7168 15.3476 16.4293 16.2624C15.8627 16.7197 15.3477 17.2788 15.0902 17.8378C15.0387 17.4312 15.1417 17.0247 15.1417 16.5673C14.9357 15.246 14.8327 13.6706 15.8627 12.6033Z" fill="white"/>
<path d="M13.3906 17.431C13.3391 16.0081 13.9572 14.8392 14.7812 13.772L14.8327 13.7212C13.9057 15.0933 14.6782 16.872 14.6267 18.4474L14.5237 20.0737C14.5237 20.0737 14.5237 20.1245 14.5752 20.1245C14.6267 19.9212 14.6267 19.7687 14.6782 19.5655C14.8842 18.2441 16.0688 17.3294 17.0473 16.4146C17.2533 16.1605 17.4593 15.9573 17.5623 15.6523C17.4593 16.313 17.2533 16.9736 16.9958 17.5835C16.2233 19.1081 14.7812 20.3277 14.5237 22.0556C14.4207 20.4294 13.2876 19.1589 13.3906 17.431Z" fill="white"/>
<path d="M12.6696 19.4639C12.7726 19.0065 12.8756 18.5491 13.0301 18.1426C12.6696 20.0229 13.9571 21.395 14.3692 23.0213C14.5237 23.6311 14.5752 24.2918 14.8327 24.8508C14.8327 24.8508 14.8842 24.8508 14.8842 24.8C14.2662 23.0721 15.1417 21.4459 16.0687 20.0737C16.2747 19.718 16.4293 19.3114 16.5323 18.8541C16.6353 19.6163 16.4293 20.5311 16.3262 21.3442C16.1202 22.3606 15.7597 23.377 15.5022 24.3934C15.2962 25.0032 15.3477 25.7147 15.4507 26.3754L15.3477 26.3245C14.6782 25.1049 13.3391 24.1393 12.9786 22.818C12.6696 21.8524 12.4636 20.5819 12.6696 19.4639Z" fill="white"/>
<path d="M12.6181 23.1228C12.7726 25.1047 14.9357 26.1719 15.9658 27.849C16.2233 28.2047 16.4293 28.5605 16.7383 28.8654C16.6868 28.6621 16.4808 28.4588 16.4293 28.2555C16.0688 27.5441 15.9658 26.7309 16.0173 25.9178C16.1203 24.9014 16.5323 23.9359 16.3778 22.8687C17.2533 24.749 16.9958 27.1375 17.5108 29.1703C17.6138 29.6277 17.9228 30.0342 18.0773 30.4408C16.2748 29.2211 13.7512 28.0523 12.9786 25.8162C12.5666 25.0031 12.5666 24.0375 12.6181 23.1228Z" fill="white"/>
<path d="M13.6995 27.7477C14.7295 30.0346 17.2531 30.187 18.9527 31.61C19.2617 31.8641 19.6222 32.1182 19.9312 32.2706C19.5192 31.9149 19.1072 31.5083 18.7982 31.051C17.8196 29.6788 18.1286 27.7477 17.4076 26.2739C18.0771 27.087 18.6952 27.9002 19.1072 28.8149C19.7252 30.2887 19.9312 31.9657 21.3733 33.0838C19.8282 32.5756 18.0256 32.728 16.6866 31.8133C15.296 30.8985 14.0085 29.3739 13.6995 27.7477Z" fill="white"/>
<path d="M16.3262 31.9655C17.9742 33.795 20.6009 33.1851 22.7639 33.6425C23.073 33.6933 23.3305 33.795 23.691 33.7442C23.4335 33.5917 23.073 33.5917 22.7639 33.4392C21.0644 32.8294 20.8069 31.0507 19.8798 29.8311C21.0644 30.5933 22.0429 31.6606 23.1245 32.677C23.897 33.3376 24.824 33.6425 25.8541 33.8458C25.5966 33.9474 25.2875 33.8966 25.03 33.9474C23.2275 34.4048 21.2704 35.0655 19.3648 34.4556C18.2318 34.0999 16.9442 33.1343 16.3262 31.9655Z" fill="white"/>
<path d="M38.4205 36.2346C36.5664 36.8953 34.6608 36.1838 33.2188 35.1166C32.6523 34.7608 32.1372 34.2526 31.3647 34.2526C31.1072 34.2526 30.8497 34.2526 30.5922 34.3035C31.9827 34.9641 33.2703 35.8281 34.4548 36.9461C34.2488 37.1494 33.9913 37.4035 33.7338 37.5559C32.6008 36.3363 31.3132 35.1674 29.9226 34.5067C29.6651 34.5576 29.4076 34.71 29.1501 34.8625C28.0171 35.574 26.884 36.4887 26.0085 37.6576L25.2875 37.0477C26.472 35.8789 27.7596 34.9641 29.2016 34.3035C27.8111 33.8461 26.884 35.0149 25.854 35.6248C24.6179 36.4887 22.8669 36.8953 21.3733 36.2854C20.5493 35.9805 19.7767 35.5231 19.2102 34.8117C20.3948 35.6248 22.1458 35.6756 23.4849 35.1674C25.2875 34.4051 27.1415 33.4395 29.3046 33.8969C29.6651 33.8969 29.9742 34.2526 30.2832 33.9477C31.8797 33.5412 33.6823 33.8461 35.0729 34.5576L36.5149 35.1166C37.854 35.6248 39.5535 35.4723 40.6866 34.6592C40.0686 35.4215 39.2445 35.9297 38.4205 36.2346Z" fill="white"/>
<path d="M40.4292 34.3541C38.3691 35.1164 36.309 34.2017 34.3005 33.8459L33.9399 33.7951C34.867 33.5918 35.794 33.2869 36.5666 32.6263C37.6481 31.559 38.6781 30.4918 39.9142 29.6787C38.9872 30.8476 38.8841 32.4738 37.3906 33.2361C37.0301 33.4902 36.5665 33.541 36.1545 33.6935C36.7211 33.6935 37.1846 33.4902 37.7511 33.4394C39.7597 33.1345 42.0773 33.4394 43.5193 31.7623C42.9013 32.9312 41.6138 33.9476 40.4292 34.3541Z" fill="white"/>
<path d="M41.5623 32.2703C40.5322 32.5244 39.3992 32.626 38.3691 32.9818C40.1202 31.508 40.0172 29.2211 41.1503 27.5441C41.5108 27.0359 41.8198 26.5277 42.2318 26.0703C41.5108 27.4424 41.8198 29.2719 41.0473 30.6441C40.7382 31.2031 40.2747 31.7113 39.8112 32.1179C39.9657 32.1179 40.1202 31.9654 40.2747 31.8638C41.6138 30.5933 43.3133 30.1867 44.7039 29.1703C45.2704 28.7129 45.7854 28.1539 46.043 27.4933C45.7339 29.6277 43.5709 31.6097 41.5623 32.2703Z" fill="white"/>
<path d="M44.1374 28.6114C43.3134 29.1196 42.4893 29.6278 41.7168 30.2377V30.1868C42.9013 28.2049 42.3348 25.5114 43.0559 23.377L43.3134 22.6655C43.2104 23.936 43.7769 25.1049 43.7769 26.4262C43.7254 27.2393 43.4679 27.9508 43.0044 28.6114H43.0559C43.6224 27.8491 44.0859 27.036 44.8069 26.3245C45.8885 25.3082 46.97 24.2918 47.073 22.8688C47.485 25.2573 46.146 27.2901 44.1374 28.6114Z" fill="white"/>
<path d="M34.97 28.4588L35.073 28.3571C35.4335 28.0522 35.8455 27.7981 36.1545 27.4424H36.206C36.1545 27.4424 36.0515 27.4932 35.9485 27.4424C35.794 27.3407 35.7425 27.1883 35.7425 27.0358L34.97 26.2735L34.9185 26.1719C34.867 26.3243 34.764 26.426 34.661 26.5276C34.661 26.6293 34.6094 26.7817 34.764 26.8325C35.0215 26.9342 35.3305 27.0866 35.382 27.3407C35.279 27.5948 34.764 27.8489 35.073 28.1538C35.176 28.3063 34.9185 28.3571 34.97 28.4588Z" fill="#006BB6"/>
<path d="M30.5923 18.651C30.7468 18.7527 30.7983 18.6002 30.9528 18.5494C31.1073 18.5494 31.2618 18.7018 31.3648 18.8035C31.4679 18.8543 31.5709 18.8035 31.6739 18.7527C31.7254 18.2445 32.3949 18.3461 32.5494 17.8379L32.4464 17.8887C32.3949 17.8379 32.2919 17.8379 32.2919 17.7363C32.3949 17.6346 32.5494 17.4822 32.6524 17.4314C32.0859 17.0756 31.5194 16.8215 30.9013 16.6691C30.6438 16.6182 30.3863 16.6182 30.1803 16.5166C30.2833 16.8723 30.1803 17.3805 30.2833 17.7871L30.6953 17.9396C30.8498 17.7363 31.1073 17.6855 31.2103 17.4822C31.3133 17.4314 31.3648 17.4822 31.4679 17.533C31.4679 17.6855 31.4679 17.8379 31.4163 17.9904C31.2103 18.3969 30.7983 18.4478 30.5923 18.651Z" fill="#006BB6"/>
<path d="M37.0815 22.7166C36.824 23.5297 36.515 24.292 36 25.0034C35.794 25.2575 35.588 25.6133 35.3304 25.7149L35.897 26.2231C35.9485 26.1723 35.897 26.1215 35.897 26.1215C35.897 26.0707 35.9485 25.969 36 25.969C36.2575 25.969 36.2575 26.2231 36.412 26.3756C36.3605 26.6297 36.5665 26.7821 36.515 26.9854C38.0601 25.3592 38.8326 23.428 38.9871 21.2428L39.0901 21.1412C38.5236 21.192 37.9571 21.1412 37.3905 21.1412L37.236 21.0903C37.2875 21.4461 37.1845 21.8018 37.133 22.1575L37.339 22.3608C37.3905 22.4625 37.3905 22.5641 37.2875 22.6149C37.2875 22.8182 37.1845 22.7674 37.0815 22.7166Z" fill="#006BB6"/>
<path d="M35.6394 17.3802C35.4334 16.9736 35.1244 16.6687 34.8154 16.313L34.7639 16.3638C34.1974 16.9228 33.5794 17.5327 33.0643 18.1425C33.1158 18.1933 33.1673 18.295 33.2188 18.295C33.2188 18.1425 33.3218 18.0409 33.3218 17.8884C33.4763 17.6851 33.6824 17.8376 33.8884 17.8376C34.1974 17.7868 34.4549 17.8884 34.7639 17.8884C34.9699 17.99 35.0214 18.295 35.2274 18.3966C35.2789 18.4982 35.2274 18.5491 35.1759 18.6507C35.2274 19.1081 35.4334 18.5491 35.6909 18.6507C35.794 18.7015 35.897 18.6507 36 18.7523C36.0515 18.9556 36.2575 18.9048 36.2575 19.1081C36.2575 19.2097 36.1545 19.2097 36.103 19.2605C36.1545 19.4638 35.897 19.5654 36 19.7687C36.3605 19.8195 36.3605 19.413 36.515 19.2605C36.412 18.9556 36.3605 18.6507 36.1545 18.3458C35.9485 18.295 35.8454 18.0917 35.6394 18.0409C35.2274 17.8376 35.6909 17.6343 35.6394 17.3802Z" fill="#006BB6"/>
<path d="M30.1803 29.9837C30.6438 29.8312 31.1588 29.8821 31.6739 29.7804C31.5708 29.7296 31.4678 29.7296 31.4163 29.628C31.1073 29.628 31.0043 29.323 30.9013 29.0689C30.8498 28.9165 30.9528 28.764 31.0558 28.6116C30.9528 28.3575 30.5408 28.5607 30.3348 28.4591C30.2833 28.4083 30.2318 28.3575 30.1288 28.3066L30.2318 28.4591C30.1803 28.9673 30.2318 29.4755 30.1803 29.9837Z" fill="#006BB6"/>
<path d="M30.5408 25.2575C30.6953 25.3083 30.5923 25.4608 30.6953 25.5116C30.9528 25.4099 31.1588 25.7149 31.3133 25.5624C31.3133 25.2575 31.6223 25.3083 31.8283 25.2067C32.0858 25.0542 32.3948 24.8509 32.3948 24.4444L32.3433 24.3936C32.1373 24.3936 32.0343 24.546 31.9313 24.6477C31.7768 24.7493 31.6738 24.4444 31.5193 24.546C31.5193 24.5968 31.5708 24.5968 31.5708 24.5968C31.6223 24.6477 31.6223 24.7493 31.5708 24.7493C31.3648 24.9526 31.2618 24.6477 31.0558 24.6985V24.7493C31.0558 24.8001 31.0558 24.8509 31.0043 24.8509C30.9013 24.6477 30.6438 24.7493 30.4893 24.546C30.3862 24.4952 30.3347 24.546 30.2832 24.5968C30.2317 24.6985 30.0257 24.5968 30.0772 24.7493C29.9227 24.8001 29.9227 24.9526 29.8197 25.0542C29.6137 25.0034 29.5622 25.2575 29.3562 25.2067C29.3562 25.2575 29.3562 25.3083 29.4077 25.3083C29.5107 25.3591 29.6137 25.3591 29.7682 25.3591C29.9742 25.1559 30.2832 25.4099 30.5408 25.2575Z" fill="#006BB6"/>
<path d="M32.3434 22.9195C32.3434 23.0212 32.3434 23.1228 32.4464 23.2244C32.7039 23.1736 32.6009 23.5294 32.8069 23.4785C32.9099 23.4277 32.8069 23.3261 32.8584 23.2753C32.8069 23.072 32.6524 23.072 32.4979 22.9703C32.4979 22.9195 32.4979 22.9195 32.5494 22.8687C32.4464 22.8179 32.4464 22.8687 32.3434 22.9195Z" fill="#006BB6"/>
<path d="M32.0859 14.5853C31.4678 14.382 30.7983 14.2804 30.1288 14.1787L30.1803 14.3312V15.9574L30.3348 15.9066C31.3648 16.059 32.2919 16.364 33.0644 17.0246L33.1159 17.1771C33.3734 16.8213 33.7854 16.4656 34.146 16.1099L34.455 15.9574L34.3005 15.9066C33.6309 15.2967 32.8584 14.8394 32.0859 14.5853Z" fill="#006BB6"/>
<path d="M20.7038 21.3444L20.8584 22.4624C20.9099 22.8689 21.1159 23.3263 21.1159 23.7329C21.1674 23.6312 21.1159 23.4788 21.3219 23.428C21.2704 23.2755 21.4249 23.1739 21.3219 23.0722C21.3734 22.7673 21.4249 22.4624 21.6824 22.2591C21.9914 22.2591 22.0429 21.8526 22.3519 21.8017C22.5064 21.8017 22.6094 22.005 22.6609 22.0558C22.4549 21.8017 22.4549 21.446 22.5064 21.1919L22.3519 21.2427C21.7854 21.2427 21.1674 21.2935 20.6523 21.1919L20.7038 21.3444Z" fill="#006BB6"/>
<path d="M31.6738 24.1393C31.8283 23.9868 32.1374 23.9868 32.1374 23.7835C31.9313 23.7327 31.8283 23.8852 31.6738 23.9868C31.6738 24.0376 31.5708 24.1393 31.6738 24.1393Z" fill="#006BB6"/>
<path d="M35.588 21.1411L35.794 21.3444C36 21.4969 35.8455 21.7509 36.0515 21.8526C36.309 21.9542 36.3605 22.2591 36.4636 22.4624C36.5151 22.4116 36.5151 22.3608 36.5151 22.31C36.6181 21.9542 36.5666 21.5985 36.6696 21.2936C36.309 21.2428 35.897 21.2428 35.588 21.1411Z" fill="#006BB6"/>
<path d="M33.1159 25.3588C33.3219 25.4096 33.4764 25.6637 33.7339 25.6129C33.9399 25.5112 34.3004 25.6637 34.4549 25.4604C34.4549 25.2571 34.6094 25.0539 34.7124 24.9014H34.7639C34.8669 25.003 34.867 25.2063 34.9185 25.3588C35.073 25.1555 35.2275 25.003 35.382 24.7998C35.794 24.2407 36.1545 23.5801 36.2575 22.9194C36.103 22.9194 35.9485 22.9703 35.794 23.0211C35.6395 23.0211 35.382 23.1227 35.2275 22.9703C35.176 22.9194 35.1245 22.9703 35.1245 23.0211C35.073 23.1227 35.0215 23.2244 34.8669 23.1735C34.7639 23.1227 34.7639 23.0211 34.7124 22.9194C34.7124 22.9703 34.7124 23.0719 34.6609 23.1227C34.5579 23.2752 34.5064 23.3768 34.4034 23.5293C34.2489 23.6817 34.0429 23.6309 33.9399 23.7326C33.9399 24.0375 33.5794 23.9358 33.4249 24.0375C33.4249 24.0883 33.4764 24.0883 33.4764 24.0883C33.5794 24.0883 33.6824 24.0883 33.7339 24.0375C33.9914 24.0883 33.9399 23.7834 34.0944 23.6817C34.1974 23.6817 34.3519 23.5801 34.4549 23.6309C34.6094 23.7834 34.6094 24.0375 34.6094 24.2407C34.4549 24.3932 34.5579 24.5965 34.4549 24.7998C34.4549 25.003 34.2489 25.1047 34.2489 25.308C34.1459 25.4096 34.0429 25.4096 33.8884 25.4096C33.4249 25.2063 32.9099 25.1047 32.3433 25.0539C32.2918 25.0539 32.2403 25.1047 32.2918 25.1555C32.6009 25.2571 32.8584 25.2571 33.1159 25.3588Z" fill="#006BB6"/>
<path d="M29.4592 30.6441L29.5107 30.5425L29.3047 30.5933C26.9356 30.4409 24.824 29.5769 23.073 27.9507V28.0015L21.8369 29.272C23.7425 30.8982 25.9056 31.9654 28.3777 32.2704C28.7897 32.3212 29.2017 32.3212 29.6137 32.4228L29.5107 32.2704V30.6441H29.4592Z" fill="#006BB6"/>
<path d="M26.9872 24.1396C27.6567 24.6477 28.3777 25.0035 29.2018 25.1559C29.2533 25.0035 29.2018 24.8002 29.2533 24.6477C29.3048 24.4953 29.4593 24.4953 29.6138 24.5461C29.6653 24.5461 29.7168 24.4445 29.6653 24.3937C29.5108 24.3428 29.5623 24.1904 29.5108 24.0379C29.5108 23.9871 29.6138 23.9871 29.6138 23.9363C29.5108 23.8346 29.6653 23.733 29.5623 23.6314C29.6138 23.6314 29.6138 23.5805 29.6653 23.5297C29.3048 23.6822 28.8928 23.4789 28.5837 23.3264C28.4292 23.2248 28.1717 23.1232 28.1717 22.9707C27.8627 23.3264 27.3477 23.733 26.9872 24.1396Z" fill="#006BB6"/>
<path d="M26.3691 22.259C26.3176 22.2082 26.3176 22.259 26.2661 22.3098C26.2146 22.3098 26.2146 22.3098 26.1631 22.3098C26.1631 21.9541 25.7511 22.1573 25.6481 22.0049C25.8026 22.3098 25.9056 22.6655 26.1116 22.9705C26.2146 23.2246 26.4721 23.4787 26.5751 23.7328C26.6781 23.5295 26.9356 23.3262 27.0901 23.1229C27.0901 23.0213 27.0901 22.9705 27.0386 22.8688C26.9871 22.7164 27.0386 22.5639 26.9356 22.4623C26.7811 22.5131 26.9871 22.6655 26.9356 22.7672C26.8841 22.818 26.7811 22.7672 26.7811 22.7164C26.6266 22.7164 26.5236 22.5639 26.4721 22.4623C26.5236 22.3606 26.3691 22.3098 26.3691 22.259Z" fill="#006BB6"/>
<path d="M27.5537 22.4116C27.5022 22.5641 27.3991 22.7165 27.2961 22.8182C27.4506 22.7165 27.5537 22.5133 27.7597 22.5133L27.5537 22.4116Z" fill="#006BB6"/>
<path d="M29.3046 28.3068C27.811 28.256 26.5235 27.6969 25.3389 26.833C25.3904 26.9855 25.5449 27.0871 25.4934 27.2396C25.3904 27.392 25.1844 27.392 25.0299 27.392C24.6694 27.3412 24.4119 27.5953 24.1029 27.6461C23.7939 27.7478 23.6909 27.392 23.4333 27.392C25.1329 28.8658 27.09 29.7805 29.3561 29.8822L29.5106 29.9838L29.4591 29.7805V28.2051L29.3046 28.3068Z" fill="#006BB6"/>
<path d="M22.7124 27.4936C22.5064 27.3411 22.3003 27.1378 22.1458 26.9346C21.9398 26.8837 21.7338 26.7313 21.6308 26.528C21.5793 26.4772 21.6308 26.3247 21.5793 26.2739L21.5278 26.3755C21.3218 26.4772 21.2188 26.2739 21.0643 26.1723C20.8583 26.0706 20.9613 25.7149 20.7038 25.7657C20.6008 25.7657 20.6008 25.6641 20.4978 25.6132C20.2403 25.6132 20.1888 25.3591 20.0858 25.2575C20.0858 25.3083 20.0858 25.3591 20.0343 25.41C19.7767 25.4608 19.7252 25.1559 19.5192 25.0542C19.4677 25.0542 19.4677 25.105 19.3647 25.105C19.2102 24.9526 19.1072 24.8001 19.1072 24.5969C18.9012 24.3936 19.0042 24.0378 19.0557 23.7329C19.1072 23.6821 19.2102 23.6313 19.1587 23.5296C19.2102 23.428 19.3647 23.3772 19.4677 23.3772C19.5192 23.3772 19.5707 23.428 19.5707 23.4788C19.6737 23.428 19.8282 23.4788 19.7767 23.3264C19.8797 23.2247 20.0343 23.2247 20.1888 23.1739C20.2918 23.2755 20.3433 23.428 20.4463 23.5296L20.3433 23.3772C20.2403 22.869 20.0858 22.2591 20.0858 21.5985C20.0858 21.5477 20.0343 21.5477 20.0343 21.4969C20.0343 21.3444 20.0343 21.2428 20.0343 21.1411L19.8797 21.1919H18.1802C18.2832 23.1231 18.7982 24.9018 19.6737 26.4772C20.0858 27.2903 20.7553 28.0018 21.3218 28.7132L22.5579 27.4936H22.7124Z" fill="#006BB6"/>
<path d="M24.6694 13.4162C24.3089 13.6703 23.9484 14.0261 23.5364 14.2293C23.9999 14.5343 24.3604 14.9916 24.7724 15.3474L24.8239 15.449C25.854 14.4834 27.1415 13.8736 28.4806 13.6195C28.7896 13.5687 29.1501 13.4671 29.4591 13.5687C29.4591 13.0097 29.4076 12.3998 29.4591 11.8408C27.6565 11.9425 26.06 12.4507 24.6694 13.4162Z" fill="#006BB6"/>
<path d="M23.176 19.7179C23.1245 20.0228 23.1245 20.3277 23.0215 20.6326C23.2275 20.531 23.5365 20.5818 23.794 20.5818C23.6395 20.531 23.794 20.3277 23.691 20.2261C23.691 20.0736 23.6395 19.8703 23.794 19.7687C23.794 19.5146 24.0515 19.413 24.0515 19.1589C24.103 18.9048 24.412 19.0572 24.5665 18.9556C24.6696 18.9048 24.5665 18.8031 24.5665 18.7523C24.6696 18.5998 24.8756 18.5998 25.0301 18.4982C25.1331 18.3457 25.2876 18.1933 25.4421 18.0916C25.8026 18.0916 25.8026 17.5834 26.1631 17.5834C25.6996 17.2277 25.2361 16.7703 24.8241 16.3638C24 17.3802 23.4335 18.4474 23.176 19.7179Z" fill="#006BB6"/>
<path d="M23.4335 22.1575C23.4335 22.0558 23.279 22.005 23.279 21.9034C23.382 21.7001 23.279 21.2935 23.588 21.2427C23.382 21.2935 23.176 21.3444 23.0215 21.1919L23.1245 21.3444C23.1245 21.7509 23.279 22.1066 23.2275 22.5132C23.279 22.4116 23.279 22.2591 23.4335 22.1575Z" fill="#006BB6"/>
<path d="M25.1313 26.5277L25.0815 26.4771L25.1313 26.5277Z" fill="#006BB6"/>
<path d="M23.0729 14.7379L22.4034 15.551C21.3219 17.0248 20.8069 18.7018 20.6523 20.5821L22.3519 20.5313L22.5064 20.5821C22.4549 20.5313 22.4549 20.4805 22.4549 20.4297C22.6094 18.7018 23.2275 17.1772 24.412 15.9067C23.9485 15.5002 23.5365 15.0936 23.1244 14.6362L23.0729 14.7379Z" fill="#006BB6"/>
<path d="M28.2747 26.0197C28.4292 25.8672 28.5837 25.7656 28.7382 25.7148C28.1717 25.8164 27.7082 25.4607 27.2447 25.2066C26.9872 25.0033 26.6266 24.8508 26.4721 24.5459C26.1116 25.0033 25.6996 25.4098 25.2361 25.7656C25.4421 25.7656 25.5451 25.9688 25.6996 26.0705C26.6266 26.8328 27.7597 27.1885 28.8412 27.4426L28.5322 27.2902C28.3262 27.0361 28.0172 26.7311 27.9657 26.4262C28.2232 26.4262 28.1717 26.1721 28.2747 26.0197Z" fill="#006BB6"/>
<path d="M24.0515 21.2427L24 21.5477C23.9485 21.7509 23.691 21.5985 23.588 21.7001C23.485 21.8018 23.588 21.9542 23.6395 22.0559C23.485 22.4624 24.0515 22.5641 24 22.9198C24.1545 23.1231 24 23.428 24.206 23.6313C24.2575 24.0378 24.1545 24.546 24.5151 24.8509L24.5666 25.2067C24.6181 25.4608 24.2575 25.41 24.309 25.6132C24.3606 25.5624 24.4121 25.6641 24.4121 25.7149C24.8756 25.1559 25.4421 24.5968 26.0086 24.1395L25.7511 23.8854C25.3391 23.2247 24.9786 22.5641 24.8241 21.8018L24.6696 21.7001C24.6696 21.9034 24.5666 22.0559 24.5666 22.2591L24.5151 22.31C24.4121 22.31 24.309 22.2083 24.206 22.1575C24.206 22.1067 24.103 22.005 24.206 21.9034C24.2575 21.9034 24.309 21.9034 24.3605 21.9542C24.4121 21.9034 24.4121 21.8018 24.4121 21.7001C24.4121 21.5477 24.309 21.446 24.4121 21.2936C24.5151 21.2936 24.6181 21.3952 24.6696 21.4968C24.7726 21.5477 24.8756 21.446 24.9786 21.3952C24.9786 21.2936 25.1331 21.1411 24.9786 21.0903C25.0816 20.8362 24.9786 20.5821 24.9786 20.3788C24.9271 20.1755 24.6696 20.2263 24.5151 20.2263C24 20.3788 24.6181 20.7345 24.4636 21.0395C24.3606 21.3444 24.206 21.1411 24.0515 21.2427Z" fill="#006BB6"/>
<path d="M39.7596 21.1919L39.6566 21.1411L39.7081 21.2936C39.6051 23.3264 38.9356 25.0542 37.7511 26.6805C37.5451 26.9346 37.339 27.2903 37.03 27.4428C37.4935 27.7985 38.0086 28.3575 38.3691 28.7641L38.4206 28.6624C40.2747 26.5788 41.3562 24.0887 41.4592 21.2936L41.5107 21.1411L41.4077 21.1919H39.7596Z" fill="#006BB6"/>
<path d="M23.1759 13.8227V13.7211C24.9785 12.0948 27.0386 11.2309 29.4077 11.1293L29.3562 10.9768V9.50305L29.4077 9.35059C26.9356 9.45223 24.7725 10.2653 22.8154 11.6375C22.4549 11.8916 22.0944 12.2981 21.7339 12.5014H21.7854C22.3004 12.8571 22.7639 13.3653 23.1759 13.8227Z" fill="#006BB6"/>
<path d="M29.3563 14.2295C27.8112 14.3312 26.4721 14.9918 25.2876 15.9574C25.7511 16.2623 26.1631 16.7705 26.5752 17.1771C26.6267 17.1263 26.6267 17.0754 26.6782 17.0246C27.2447 16.6181 27.8627 16.2623 28.5322 16.059C28.8412 16.0082 29.1503 15.9066 29.4593 15.9574C29.4078 15.3984 29.4078 14.7377 29.4593 14.1787L29.3563 14.2295Z" fill="#006BB6"/>
<path d="M29.4593 16.6182C28.4807 16.7706 27.5537 17.0755 26.8326 17.8378H26.9871C27.1417 17.9903 27.3477 17.9395 27.5022 18.1428C27.5537 18.2444 27.3992 18.2444 27.3992 18.346C27.4507 18.3969 27.4507 18.3969 27.5022 18.3969C27.6052 18.4477 27.6052 18.346 27.6567 18.2952C27.8112 18.1428 27.8112 18.4477 27.9657 18.4477C28.0687 18.3969 28.2232 18.3969 28.2747 18.4985C28.3777 18.3969 28.5837 18.4985 28.6352 18.346C28.8412 18.1428 28.7382 17.8378 28.9957 17.7362C29.0987 17.787 28.9957 17.8887 29.0472 17.9903C29.2532 18.0919 29.4593 17.8378 29.6138 18.0411C29.4077 17.5329 29.4593 17.0247 29.4593 16.6182Z" fill="#006BB6"/>
<path d="M29.5108 19.3115C29.3048 19.6164 29.0473 19.6672 28.7383 19.7689C28.6352 19.8705 28.6868 20.0738 28.4807 20.0738C28.4292 20.2263 28.2232 20.2771 28.2747 20.4804C28.1717 20.6836 28.2232 20.9377 28.1717 21.1918C27.8112 21.3951 27.9142 20.8869 27.7082 20.7853V20.8361C27.6567 20.8361 27.6052 20.8361 27.5537 20.7853C27.5022 20.7853 27.3992 20.7345 27.3477 20.7853C27.2447 20.9377 27.1417 21.0394 27.1932 21.1918C27.1417 21.2935 26.9872 21.2427 26.9872 21.3951C27.1932 21.3951 27.3992 21.3443 27.6052 21.2935C27.7597 21.3443 27.8627 21.2427 28.0172 21.2427C28.0687 21.2427 28.1202 21.2935 28.1202 21.3951H28.1717C28.2747 21.3443 28.3262 21.1918 28.2747 21.0902C28.2747 20.9377 28.4292 20.9377 28.5322 20.9377C28.6353 20.9886 28.5837 21.0394 28.5837 21.0902C28.8413 21.1918 28.5322 21.3951 28.4807 21.5476C28.4292 21.6492 28.4807 21.9033 28.2747 21.9033C28.2232 21.9033 28.2232 21.8525 28.2232 21.8017H28.1717C28.1717 21.9033 28.2232 22.0558 28.3262 22.0558C28.4807 21.9033 28.4807 21.7 28.7383 21.6492C28.8413 21.4968 28.6868 21.2935 28.8928 21.1918C29.2018 21.1918 29.5623 21.0394 29.8198 21.2935C29.8198 21.3951 29.7683 21.4459 29.8713 21.5476C29.8198 21.7 29.7683 21.8525 29.6653 21.9541C29.7168 22.0558 29.6653 22.1066 29.6138 22.2082C29.5108 22.564 29.0988 22.4115 28.8413 22.5131C29.2018 22.8181 29.6653 22.9197 30.1803 22.8689C30.4378 22.8689 30.3348 22.5131 30.4378 22.4115C30.5408 22.0049 30.9013 22.259 31.1589 22.1574C31.2619 21.9541 31.3649 21.8017 31.3649 21.5984C31.2104 21.4968 31.1589 21.3443 31.2104 21.141C31.1074 20.9886 31.1074 20.7345 30.9013 20.7345C30.8498 20.6836 30.9013 20.6328 30.9013 20.582C30.9013 20.4295 31.0043 20.4295 31.0558 20.2771C30.9013 20.1754 30.9528 19.9722 30.9528 19.8705C30.6953 19.9213 30.6953 19.6164 30.4893 19.5656C30.4378 19.4131 30.2833 19.4131 30.1803 19.3623C29.8713 19.5148 29.8198 19.159 29.6138 19.0574C29.6138 19.0066 29.5623 18.9049 29.6138 18.8541C29.7168 18.7525 29.8713 18.8541 29.9743 18.8541L29.8713 18.8033C29.7683 18.7017 29.5623 18.7525 29.4078 18.8033C29.5108 18.9558 29.4593 19.159 29.5108 19.3115Z" fill="#006BB6"/>
<path d="M20.0858 20.582L20.0343 20.3279C20.1373 18.3968 20.7553 16.6689 21.8883 15.1443C22.1458 14.8394 22.3518 14.4328 22.7124 14.2296C22.3003 13.8738 21.8883 13.4164 21.4763 13.0099L21.4248 12.8574C19.6737 14.7886 18.5922 16.9738 18.2832 19.464C18.2317 19.8197 18.2832 20.1755 18.1802 20.582C18.7982 20.5312 19.4677 20.5312 20.0858 20.582Z" fill="#006BB6"/>
<path d="M36.6181 27.7983C36.4636 28.1541 36.0515 28.3574 35.794 28.6115C35.382 29.018 34.764 29.0688 34.558 29.6787C34.352 29.8819 34.249 30.1869 33.9915 30.2885C33.8885 30.5934 33.5794 30.5426 33.3734 30.7459C32.8584 31.2033 32.5494 30.441 32.0859 30.3901L31.1588 30.5426C30.8498 30.5426 30.4893 30.6442 30.1803 30.5426C30.2318 31.1524 30.2318 31.8131 30.1803 32.4229L30.2833 32.3721C33.2189 32.2705 35.794 31.1524 37.9571 29.1705L36.6696 27.9508L36.6181 27.7983Z" fill="#006BB6"/>
<path d="M30.1288 10.9769C30.1288 10.9261 30.1288 10.8753 30.1803 10.8244C30.2833 10.7736 30.3348 10.8244 30.3863 10.9261C30.3863 11.0277 30.4378 11.1802 30.3348 11.1802C30.3863 11.1802 30.4378 11.1294 30.4893 11.1294C31.8798 11.231 33.1674 11.6375 34.3519 12.2982V12.2474C34.6095 12.1457 34.9185 11.9933 35.1245 12.1966C35.4335 12.0949 35.485 12.4507 35.691 12.5015C36 12.6539 36.309 13.0097 36.3605 13.3146C36.412 13.4162 36.5665 13.5179 36.618 13.6195C36.824 13.213 37.1846 12.908 37.5451 12.5523L37.7511 12.4507C35.897 10.7228 33.6824 9.75722 31.2618 9.40148C30.8498 9.35066 30.4378 9.35066 30.0773 9.24902C30.1803 9.80804 30.1803 10.4179 30.1288 10.9769Z" fill="#006BB6"/>
<path d="M30.1288 13.5688C30.3863 13.4671 30.5923 13.5688 30.8498 13.5688C32.0344 13.772 33.1674 14.1278 34.146 14.8901C34.043 14.7884 33.8884 14.636 33.8884 14.4327C33.8884 14.4327 33.9399 14.3819 33.9399 14.4327C33.9399 14.2294 33.7339 14.1278 33.7339 13.9753C33.7854 13.9245 33.7854 13.9245 33.8884 13.9245C34.0945 14.1278 34.249 14.3311 34.4035 14.5343C34.558 14.4835 34.661 14.5852 34.764 14.636C34.9185 14.7376 34.8155 14.9409 34.97 15.0934C34.97 15.4491 35.4335 15.6524 35.4335 16.0081C35.4335 16.1097 35.5365 16.0081 35.588 16.0589L35.9485 16.5163C35.897 16.6179 35.9485 16.7196 36 16.7704C36.1545 16.8212 36.2575 16.6179 36.412 16.6688C36.6696 16.8212 36.3605 16.9737 36.412 17.1261C36.5151 17.1261 36.6181 17.0753 36.7211 17.1261C36.7726 17.2786 36.6181 17.3294 36.5666 17.4311C36.5666 17.5835 36.6696 17.5327 36.7726 17.5835C36.8756 17.5835 36.9271 17.736 36.9271 17.7868C37.2361 18.0917 36.8241 18.4475 36.9786 18.7524C37.0816 18.9557 36.9786 19.1589 36.8241 19.3622C36.8241 19.6163 36.5666 19.7688 36.5151 20.0229L36.0515 20.0737C35.897 20.2261 36.206 20.4294 36.0515 20.5311H36.7211L36.6696 20.4802C36.5666 20.2261 36.5666 19.8196 36.7211 19.6163C36.8241 19.413 36.8756 19.1589 37.0301 18.9557C37.0816 18.9557 37.1331 18.854 37.1846 18.9557C37.1846 19.1589 37.1846 19.413 37.0816 19.5655C37.2876 19.8196 37.2361 20.2261 37.2876 20.5311C37.9056 20.4802 38.4721 20.4802 39.0902 20.4802L39.0387 20.3786C38.9357 19.2606 38.7296 18.1934 38.2661 17.2278C38.1631 17.2278 38.0601 17.3294 37.9056 17.2786C37.8541 17.2786 37.8026 17.2278 37.8541 17.177C37.5966 16.9229 37.4421 16.6688 37.1846 16.4147C36.8756 16.4655 36.7211 16.1097 36.4636 16.0589C36.206 15.9573 36.3605 15.5507 36 15.6524C35.8455 15.6016 35.6395 15.4491 35.6395 15.2458C35.6395 14.9409 35.588 14.5852 35.279 14.3819C35.073 14.2802 34.97 14.5852 34.764 14.5343C34.661 14.4835 34.7125 14.3311 34.661 14.2294C34.6095 14.1278 34.5065 14.077 34.558 13.9753C34.867 13.6196 34.1975 13.6196 34.352 13.2638C34.3005 13.0097 34.043 12.9081 33.8884 12.7048C32.9614 12.2983 31.9829 11.9934 30.9013 11.8409C30.6438 11.7901 30.3863 11.8409 30.1803 11.7393L30.2318 11.8409C30.1288 12.4507 30.1803 13.0606 30.1288 13.5688Z" fill="#006BB6"/>
<path d="M36.824 14.1787C36.9785 14.2296 36.9785 14.382 37.0815 14.4328C37.545 14.6869 37.648 15.1443 38.06 15.3984C38.266 15.8558 38.7811 16.2115 38.7811 16.7197C39.2961 17.8886 39.6566 19.1082 39.7081 20.4804L39.6566 20.582C39.7081 20.582 39.7596 20.582 39.8111 20.5312L41.5622 20.4804C41.4592 20.3279 41.5107 20.0738 41.4592 19.8705C41.2017 17.1771 40.0686 14.8902 38.266 12.8574C37.9055 13.3148 37.4935 13.7214 37.03 14.1279L36.824 14.1787Z" fill="#006BB6"/>
<path d="M30.3862 10.6722C30.4377 10.5705 30.5922 10.6214 30.6437 10.6214L31.5192 10.2656C31.8798 10.3164 32.2403 10.3164 32.4978 10.6214V10.6722C32.2918 10.8755 31.9828 10.9771 31.7253 10.8755C31.3132 10.9771 30.7467 11.1804 30.4377 10.7738C30.3862 10.7738 30.3347 10.723 30.3862 10.6722Z" fill="white"/>
<path d="M35.6394 11.7899C35.7425 11.8408 35.897 11.8916 35.897 11.9932C35.8455 12.1457 36.0515 12.2473 35.9485 12.3489C35.6394 12.4506 35.5879 12.044 35.3304 11.9932C35.2789 11.9424 35.2789 11.8916 35.2789 11.8408C35.3819 11.6883 35.4849 11.8916 35.6394 11.7899Z" fill="white"/>
</svg>
